<?xml version="1.0" encoding="utf-8"?>
<!-- Generator: Adobe Illustrator 26.1.0, SVG Export Plug-In . SVG Version: 6.00 Build 0)  -->
<svg version="1.1" id="Camada_1" xmlns="http://www.w3.org/2000/svg" xmlns:xlink="http://www.w3.org/1999/xlink" x="0px" y="0px"
	 viewBox="0 0 435.3 412.2" style="enable-background:new 0 0 435.3 412.2;" xml:space="preserve">
<style type="text/css">
	.st0{fill:none;stroke:#FFFFFF;stroke-width:28.3465;}
	.st1{fill:#FFFFFF;}
</style>
<g>
	<g>
		<ellipse class="st0" cx="218" cy="253.3" rx="161" ry="143.9"/>
		<path class="st0" d="M52.6,224c20.8-45,49.9-79,65-75.8s28.8,47.5,8,92.5S33.6,366.3,18.4,363.2C3.3,360,31.9,268.9,52.6,224z"/>
		<path class="st0" d="M382.6,224c-20.8-45-49.9-79-65-75.8s-28.8,47.5-8,92.5s92.1,125.7,107.2,122.6
			C432,360,403.4,268.9,382.6,224z"/>
		<ellipse class="st0" cx="218" cy="335.7" rx="115.7" ry="62.3"/>
		<ellipse class="st0" cx="218" cy="282.9" rx="115.7" ry="39.5"/>
		<path class="st0" d="M125.4,259.4c-2.6,4.5-23.5-2.7-33.5-8.5c-10-5.8-16.1-14.1-13.5-18.6c2.6-4.5,16.2-9.3,26.2-3.5
			C114.7,234.6,128,254.9,125.4,259.4z"/>
		<path class="st0" d="M310.7,259.4c2.6,4.5,23.5-2.7,33.5-8.5c10-5.8,16.1-14.1,13.5-18.6c-2.6-4.5-16.2-9.3-26.2-3.5
			C321.4,234.6,308.1,254.9,310.7,259.4z"/>
		<path class="st0" d="M264.9,132.6c0,19.6-21,35.5-46.9,35.5s-46.9-15.9-46.9-35.5S202.3,14.2,218,14.2S264.9,112.9,264.9,132.6z"
			/>
	</g>
	<g>
		<ellipse cx="218" cy="253.3" rx="161" ry="143.9"/>
		<path d="M52.6,224c20.8-45,49.9-79,65-75.8s28.8,47.5,8,92.5S33.6,366.3,18.4,363.2C3.3,360,31.9,268.9,52.6,224z"/>
		<path d="M382.6,224c-20.8-45-49.9-79-65-75.8s-28.8,47.5-8,92.5s92.1,125.7,107.2,122.6C432,360,403.4,268.9,382.6,224z"/>
		<ellipse class="st1" cx="218" cy="335.7" rx="115.7" ry="62.3"/>
		<ellipse cx="218" cy="282.9" rx="115.7" ry="39.5"/>
		<path class="st1" d="M125.4,259.4c-2.6,4.5-23.5-2.7-33.5-8.5c-10-5.8-16.1-14.1-13.5-18.6c2.6-4.5,16.2-9.3,26.2-3.5
			C114.7,234.6,128,254.9,125.4,259.4z"/>
		<path class="st1" d="M310.7,259.4c2.6,4.5,23.5-2.7,33.5-8.5c10-5.8,16.1-14.1,13.5-18.6c-2.6-4.5-16.2-9.3-26.2-3.5
			C321.4,234.6,308.1,254.9,310.7,259.4z"/>
		<path d="M264.9,132.6c0,19.6-21,35.5-46.9,35.5s-46.9-15.9-46.9-35.5S202.3,14.2,218,14.2S264.9,112.9,264.9,132.6z"/>
	</g>
</g>
</svg>
